<svg width="100" height="38" viewBox="0 0 100 38" fill="none" xmlns="http://www.w3.org/2000/svg">
<g filter="url(#filter0_d)">
<rect width="100" height="36" rx="10" fill="white"/>
<path d="M14.8168 15.395V17.67H17.8718V19.113H14.8168V21.518H18.2618V23H12.9968V13.913H18.2618V15.395H14.8168ZM24.1537 23L22.6717 20.764L21.3587 23H19.4087L21.7617 19.386L19.3827 15.798H21.4367L22.9057 18.021L24.2317 15.798H26.1817L23.8157 19.386L26.2077 23H24.1537ZM29.2762 16.838C29.5102 16.5087 29.8309 16.2357 30.2382 16.019C30.6542 15.7937 31.1266 15.681 31.6552 15.681C32.2706 15.681 32.8252 15.8327 33.3192 16.136C33.8219 16.4393 34.2162 16.8727 34.5022 17.436C34.7969 17.9907 34.9442 18.6363 34.9442 19.373C34.9442 20.1097 34.7969 20.764 34.5022 21.336C34.2162 21.8993 33.8219 22.337 33.3192 22.649C32.8252 22.961 32.2706 23.117 31.6552 23.117C31.1266 23.117 30.6586 23.0087 30.2512 22.792C29.8526 22.5753 29.5276 22.3023 29.2762 21.973V26.432H27.4562V15.798H29.2762V16.838ZM33.0852 19.373C33.0852 18.9397 32.9942 18.567 32.8122 18.255C32.6389 17.9343 32.4049 17.6917 32.1102 17.527C31.8242 17.3623 31.5122 17.28 31.1742 17.28C30.8449 17.28 30.5329 17.3667 30.2382 17.54C29.9522 17.7047 29.7182 17.9473 29.5362 18.268C29.3629 18.5887 29.2762 18.9657 29.2762 19.399C29.2762 19.8323 29.3629 20.2093 29.5362 20.53C29.7182 20.8507 29.9522 21.0977 30.2382 21.271C30.5329 21.4357 30.8449 21.518 31.1742 21.518C31.5122 21.518 31.8242 21.4313 32.1102 21.258C32.4049 21.0847 32.6389 20.8377 32.8122 20.517C32.9942 20.1963 33.0852 19.815 33.0852 19.373ZM38.3468 13.38V23H36.5268V13.38H38.3468ZM43.6029 23.117C42.9096 23.117 42.2856 22.9653 41.7309 22.662C41.1763 22.35 40.7386 21.9123 40.4179 21.349C40.1059 20.7857 39.9499 20.1357 39.9499 19.399C39.9499 18.6623 40.1103 18.0123 40.4309 17.449C40.7603 16.8857 41.2066 16.4523 41.7699 16.149C42.3333 15.837 42.9616 15.681 43.6549 15.681C44.3483 15.681 44.9766 15.837 45.5399 16.149C46.1033 16.4523 46.5453 16.8857 46.8659 17.449C47.1953 18.0123 47.3599 18.6623 47.3599 19.399C47.3599 20.1357 47.1909 20.7857 46.8529 21.349C46.5236 21.9123 46.0729 22.35 45.5009 22.662C44.9376 22.9653 44.3049 23.117 43.6029 23.117ZM43.6029 21.531C43.9323 21.531 44.2399 21.453 44.5259 21.297C44.8206 21.1323 45.0546 20.8897 45.2279 20.569C45.4013 20.2483 45.4879 19.8583 45.4879 19.399C45.4879 18.7143 45.3059 18.19 44.9419 17.826C44.5866 17.4533 44.1489 17.267 43.6289 17.267C43.1089 17.267 42.6713 17.4533 42.3159 17.826C41.9693 18.19 41.7959 18.7143 41.7959 19.399C41.7959 20.0837 41.9649 20.6123 42.3029 20.985C42.6496 21.349 43.0829 21.531 43.6029 21.531ZM50.775 16.916C51.009 16.5347 51.3123 16.2357 51.685 16.019C52.0663 15.8023 52.4996 15.694 52.985 15.694V17.605H52.504C51.932 17.605 51.4986 17.7393 51.204 18.008C50.918 18.2767 50.775 18.7447 50.775 19.412V23H48.955V15.798H50.775V16.916ZM54.0028 19.373C54.0028 18.645 54.1458 17.9993 54.4318 17.436C54.7265 16.8727 55.1208 16.4393 55.6148 16.136C56.1175 15.8327 56.6765 15.681 57.2918 15.681C57.8292 15.681 58.2972 15.7893 58.6958 16.006C59.1032 16.2227 59.4282 16.4957 59.6708 16.825V15.798H61.5038V23H59.6708V21.947C59.4368 22.285 59.1118 22.5667 58.6958 22.792C58.2885 23.0087 57.8162 23.117 57.2788 23.117C56.6722 23.117 56.1175 22.961 55.6148 22.649C55.1208 22.337 54.7265 21.8993 54.4318 21.336C54.1458 20.764 54.0028 20.1097 54.0028 19.373ZM59.6708 19.399C59.6708 18.957 59.5842 18.58 59.4108 18.268C59.2375 17.9473 59.0035 17.7047 58.7088 17.54C58.4142 17.3667 58.0978 17.28 57.7598 17.28C57.4218 17.28 57.1098 17.3623 56.8238 17.527C56.5378 17.6917 56.3038 17.9343 56.1218 18.255C55.9485 18.567 55.8618 18.9397 55.8618 19.373C55.8618 19.8063 55.9485 20.1877 56.1218 20.517C56.3038 20.8377 56.5378 21.0847 56.8238 21.258C57.1185 21.4313 57.4305 21.518 57.7598 21.518C58.0978 21.518 58.4142 21.4357 58.7088 21.271C59.0035 21.0977 59.2375 20.855 59.4108 20.543C59.5842 20.2223 59.6708 19.841 59.6708 19.399ZM65.3614 16.916C65.5954 16.5347 65.8987 16.2357 66.2714 16.019C66.6527 15.8023 67.086 15.694 67.5714 15.694V17.605H67.0904C66.5184 17.605 66.085 17.7393 65.7904 18.008C65.5044 18.2767 65.3614 18.7447 65.3614 19.412V23H63.5414V15.798H65.3614V16.916Z" fill="#9A9CB5"/>
<path d="M88.7071 17.7071C89.0976 17.3166 89.0976 16.6834 88.7071 16.2929C88.3166 15.9024 87.6834 15.9024 87.2929 16.2929L88.7071 17.7071ZM80.7071 16.2929C80.3166 15.9024 79.6834 15.9024 79.2929 16.2929C78.9024 16.6834 78.9024 17.3166 79.2929 17.7071L80.7071 16.2929ZM87.2929 16.2929L83.6464 19.9393L85.0607 21.3536L88.7071 17.7071L87.2929 16.2929ZM84.3536 19.9393L80.7071 16.2929L79.2929 17.7071L82.9393 21.3536L84.3536 19.9393ZM83.6464 19.9393C83.8417 19.7441 84.1583 19.7441 84.3536 19.9393L82.9393 21.3536C83.5251 21.9393 84.4749 21.9393 85.0607 21.3536L83.6464 19.9393Z" fill="#9A9CB5"/>
<rect x="1.5" y="1.5" width="97" height="33" rx="8.5" stroke="#C6C7D4" stroke-width="3"/>
</g>
<defs>
<filter id="filter0_d" x="0" y="0" width="100" height="38" filterUnits="userSpaceOnUse" color-interpolation-filters="sRGB">
<feFlood flood-opacity="0" result="BackgroundImageFix"/>
<feColorMatrix in="SourceAlpha" type="matrix" values="0 0 0 0 0 0 0 0 0 0 0 0 0 0 0 0 0 0 127 0"/>
<feOffset dy="2"/>
<feColorMatrix type="matrix" values="0 0 0 0 0.776471 0 0 0 0 0.780392 0 0 0 0 0.831373 0 0 0 1 0"/>
<feBlend mode="normal" in2="BackgroundImageFix" result="effect1_dropShadow"/>
<feBlend mode="normal" in="SourceGraphic" in2="effect1_dropShadow" result="shape"/>
</filter>
</defs>
</svg>
