<svg xmlns="http://www.w3.org/2000/svg" width="96.885" height="27.412" viewBox="0 0 96.885 27.412">
  <g id="Grupo_154" data-name="Grupo 154" transform="translate(-343.547 -88)">
    <path id="Trazado_429" data-name="Trazado 429" d="M1.547,3V-24H8.878V-2.9H19.8V3Zm34.44-8.86V-17.249h7.278V3H36.356V-.847h-.211a5.723,5.723,0,0,1-2.307,3.026,6.946,6.946,0,0,1-3.916,1.088,6.949,6.949,0,0,1-3.712-.976A6.63,6.63,0,0,1,23.744-.4a8.624,8.624,0,0,1-.89-3.929V-17.249h7.278V-5.857A3.487,3.487,0,0,0,30.9-3.5a2.694,2.694,0,0,0,2.129.857,3.069,3.069,0,0,0,1.576-.389,2.613,2.613,0,0,0,1.028-1.108A3.671,3.671,0,0,0,35.987-5.857Zm20.727,9.23A11.4,11.4,0,0,1,51.07,2.06a8.924,8.924,0,0,1-3.6-3.665A11.462,11.462,0,0,1,46.218-7.07a11.462,11.462,0,0,1,1.253-5.465,8.924,8.924,0,0,1,3.6-3.665,11.4,11.4,0,0,1,5.643-1.312,11.565,11.565,0,0,1,5.162,1.075,8.017,8.017,0,0,1,3.382,3.033,8.7,8.7,0,0,1,1.213,4.6H59.72a4.033,4.033,0,0,0-.916-2.433,2.576,2.576,0,0,0-1.984-.837,2.649,2.649,0,0,0-1.661.547A3.5,3.5,0,0,0,54.05-9.885a8.26,8.26,0,0,0-.4,2.762,8.26,8.26,0,0,0,.4,2.762,3.5,3.5,0,0,0,1.108,1.648,2.649,2.649,0,0,0,1.661.547,2.692,2.692,0,0,0,1.424-.376,2.783,2.783,0,0,0,1.009-1.108,4.5,4.5,0,0,0,.468-1.787h6.751A9.182,9.182,0,0,1,65.244-.774a7.935,7.935,0,0,1-3.356,3.066A11.485,11.485,0,0,1,56.714,3.372ZM75.12,3.32A8.577,8.577,0,0,1,71.7,2.68,5.108,5.108,0,0,1,69.371.735a6.013,6.013,0,0,1-.844-3.323,6.513,6.513,0,0,1,.567-2.841A5.118,5.118,0,0,1,70.677-7.36a7.459,7.459,0,0,1,2.367-1.147,14.192,14.192,0,0,1,2.921-.514A27.326,27.326,0,0,0,78.7-9.345a3.643,3.643,0,0,0,1.5-.541,1.108,1.108,0,0,0,.461-.93v-.053a1.388,1.388,0,0,0-.607-1.213A2.665,2.665,0,0,0,78.5-12.5a2.9,2.9,0,0,0-1.694.455,1.93,1.93,0,0,0-.785,1.391h-6.7a6.9,6.9,0,0,1,1.18-3.408,7.292,7.292,0,0,1,3.066-2.505,11.883,11.883,0,0,1,5.037-.943,13.839,13.839,0,0,1,3.9.508,9.237,9.237,0,0,1,2.94,1.411,6.32,6.32,0,0,1,1.853,2.11,5.5,5.5,0,0,1,.639,2.617V3h-6.8V.155h-.158A5.889,5.889,0,0,1,79.5,1.988,5.506,5.506,0,0,1,77.54,3,8.737,8.737,0,0,1,75.12,3.32Zm2.373-4.588a3.638,3.638,0,0,0,1.562-.343A3.009,3.009,0,0,0,80.249-2.6a2.629,2.629,0,0,0,.461-1.569V-5.857q-.29.119-.613.224t-.686.2q-.363.092-.765.171t-.837.145a4.175,4.175,0,0,0-1.378.429,2.055,2.055,0,0,0-.791.725,1.822,1.822,0,0,0-.257.956,1.521,1.521,0,0,0,.593,1.292A2.446,2.446,0,0,0,77.493-1.269Z" transform="translate(342 112)" fill="#3843d0"/>
    <path id="Trazado_430" data-name="Trazado 430" d="M5.4,1.154A3.481,3.481,0,0,1,2.86.112,3.389,3.389,0,0,1,1.818-2.426,3.324,3.324,0,0,1,2.86-4.919,3.492,3.492,0,0,1,5.4-5.955,3.489,3.489,0,0,1,7.885-4.919,3.373,3.373,0,0,1,8.978-2.426,3.442,3.442,0,0,1,8.46-.617,3.837,3.837,0,0,1,7.15.675,3.363,3.363,0,0,1,5.4,1.154Z" transform="translate(431.453 114.258)" fill="#f96654"/>
  </g>
</svg>
